Coordinates
version=1
nRows=40
nColumns=30
inDegrees=yes

Units are S.I. units (second, meters, Newtons, ...)
Angles are in degrees.

endheader
time	floatyaw	floatroll	floatpitch	floatx	floaty	floatz	pro_sup_l	deviation_l	flexion_l	cmc_flexion_l	cmc_abduction_l	mp_flexion_l	ip_flexion_l	2mcp_flexion_l	2mcp_abduction_l	2pm_flexion_l	2md_flexion_l	3mcp_flexion_l	3mcp_abduction_l	3pm_flexion_l	3md_flexion_l	4mcp_flexion_l	4mcp_abduction_l	4pm_flexion_l	4md_flexion_l	5mcp_flexion_l	5mcp_abduction_l	5pm_flexion_l	5md_flexion_l
0.005000	0.705439	-1.708008	98.521615	0.049814	-0.139684	0.060672	84.533676	9.503825	2.691262	20.527897	32.563262	-22.445774	-42.594406	41.128779	4.807932	53.778073	38.352769	39.931541	4.686114	58.446207	40.877200	38.604944	-5.041773	72.926116	53.036710	48.059491	-5.616368	69.142378	41.009066
0.015000	0.705439	-1.708008	98.521615	0.052718	-0.140767	0.062085	83.902349	9.392505	2.602694	19.780322	32.814532	-23.049483	-43.453708	43.331667	4.993472	54.490234	38.827048	41.311027	4.685308	60.598741	42.422228	40.580105	-5.156963	75.235141	54.729780	50.974273	-5.556773	71.665641	41.903782
0.025000	0.705439	-1.708008	98.521615	0.055000	-0.141745	0.063219	83.227801	9.307265	2.174386	19.078664	32.935600	-23.712816	-44.407812	45.792884	5.171991	55.022054	39.305017	42.927872	4.658367	62.519945	44.002316	42.726239	-5.304446	77.362628	56.518052	53.934957	-5.384058	74.400220	42.828464
0.035000	0.705439	-1.708008	98.521615	0.056679	-0.142546	0.064058	82.507658	9.217725	1.495400	18.489379	32.994178	-24.367316	-45.408945	48.303465	5.318218	55.259383	39.788113	44.707630	4.599416	63.966281	45.485069	44.936589	-5.468398	79.157088	58.292492	56.818388	-5.103832	77.083876	43.654249
0.045000	0.705439	-1.708008	98.521615	0.057828	-0.143188	0.064581	81.714256	9.102272	0.709336	18.036496	33.051118	-24.948510	-46.384517	50.648126	5.421123	55.177314	40.283293	46.528170	4.516375	64.828047	46.760849	47.085718	-5.631405	80.546513	59.927797	59.505829	-4.753702	79.474002	44.283231
0.055000	0.705439	-1.708008	98.521615	0.058559	-0.143762	0.064776	80.798799	8.957426	-0.040371	17.702452	33.147148	-25.410716	-47.258488	52.659671	5.484850	54.840649	40.795749	48.249086	4.427360	65.146599	47.768827	49.054089	-5.779573	81.540811	61.318272	61.895060	-4.389938	81.416971	44.677715
0.065000	0.705439	-1.708008	98.521615	0.059003	-0.144363	0.064651	79.715060	8.798205	-0.659318	17.444441	33.292481	-25.736167	-47.975091	54.250854	5.523344	54.372800	41.321259	49.747774	4.352517	65.079296	48.505902	50.747489	-5.904664	82.211936	62.408684	63.910141	-4.068707	82.880738	44.866746
0.075000	0.705439	-1.708008	98.521615	0.059276	-0.145010	0.064256	78.452952	8.650479	-1.126419	17.219719	33.464265	-25.936588	-48.515679	55.416945	5.551973	53.910137	41.843196	50.949336	4.305711	64.831954	49.015984	52.110348	-6.003424	82.661863	63.205527	65.511638	-3.828922	83.940175	44.926617
0.085000	0.705439	-1.708008	98.521615	0.059459	-0.145611	0.063681	77.061798	8.539735	-1.487021	17.008823	33.613794	-26.048685	-48.903459	56.215741	5.580434	53.560339	42.335499	51.839714	4.290131	64.589180	49.365479	53.133154	-6.075773	82.991295	63.764730	66.705203	-3.683281	84.728089	44.944862
0.095000	0.705439	-1.708008	98.521615	0.059598	-0.145978	0.063047	75.647196	8.481839	-1.821483	16.826146	33.680797	-26.125793	-49.195342	56.738135	5.610229	53.377654	42.769764	52.459139	4.299180	64.467999	49.616762	53.852249	-6.123558	83.278179	64.164125	67.542751	-3.620220	85.378691	44.985663
0.105000	0.705439	-1.708008	98.521615	0.059711	-0.145906	0.062475	74.340984	8.479544	-2.204266	16.713298	33.609501	-26.226567	-49.463134	57.080982	5.637193	53.359188	43.122933	52.881550	4.321111	64.504062	49.810609	54.339778	-6.150330	83.567724	64.474602	68.112178	-3.614009	85.986513	45.071846
0.115000	0.705439	-1.708008	98.521615	0.059802	-0.145268	0.062050	73.258787	8.525145	-2.670234	16.718716	33.362011	-26.400651	-49.768389	57.328394	5.656666	53.458555	43.382108	53.189753	4.344478	64.664283	49.962249	54.684679	-6.161449	83.870830	64.741005	68.516752	-3.636895	86.589655	45.187523
0.125000	0.705439	-1.708008	98.521615	0.059880	-0.144089	0.061803	72.464312	8.606535	-3.200998	16.872904	32.927214	-26.673062	-50.138144	57.542107	5.667767	53.608725	43.545195	53.454672	4.361947	64.873826	50.068727	54.970062	-6.163618	84.168243	64.976925	68.850147	-3.667727	87.174230	45.294820
0.135000	0.705439	-1.708008	98.521615	0.059955	-0.142557	0.061704	71.953932	8.712708	-3.735961	17.170279	32.324600	-27.033034	-50.551644	57.758470	5.674291	53.745437	43.618982	53.722775	4.371328	65.047670	50.121314	55.254313	-6.163578	84.420912	65.171450	69.175239	-3.694813	87.693076	45.354311
0.145000	0.705439	-1.708008	98.521615	0.060033	-0.140964	0.061680	71.665199	8.835917	-4.202127	17.566150	31.601288	-27.435258	-50.947025	57.989136	5.682170	53.825120	43.617352	54.011659	4.374197	65.120736	50.116371	55.561271	-6.166386	84.587736	65.302865	69.513833	-3.714259	88.092429	45.341142
0.155000	0.705439	-1.708008	98.521615	0.060112	-0.139610	0.061651	71.504049	8.970361	-4.547714	17.991356	30.820298	-27.817085	-51.248761	58.224121	5.695562	53.834288	43.560509	54.312117	4.373470	65.070121	50.060687	55.881043	-6.174099	84.646973	65.353646	69.850462	-3.726604	88.339124	45.253048
0.165000	0.705439	-1.708008	98.521615	0.060174	-0.138701	0.061561	71.379338	9.109560	-4.762754	18.378484	30.041569	-28.125158	-51.404101	58.438054	5.714335	53.788809	43.473662	54.595694	4.371449	64.921043	49.970872	56.180240	-6.185637	84.610597	65.321865	70.147850	-3.734041	88.437942	45.109423
0.175000	0.705439	-1.708008	98.521615	0.060195	-0.138298	0.061394	71.230729	9.244946	-4.877543	18.686448	29.302642	-28.336922	-51.408761	58.600755	5.734399	53.722852	43.383356	54.827233	4.369179	64.731877	49.868922	56.418621	-6.197980	84.521118	65.225433	70.367244	-3.738934	88.430510	44.942685
0.185000	0.705439	-1.708008	98.521615	0.060156	-0.138322	0.061174	71.039069	9.366728	-4.942711	18.910504	28.608032	-28.464931	-51.306827	58.690255	5.750248	53.671368	43.311694	54.979736	4.366926	64.564963	49.776515	56.566916	-6.208023	84.431409	65.097713	70.485641	-3.743241	88.376600	44.785553
0.195000	0.705439	-1.708008	98.521615	0.060058	-0.138615	0.060946	70.817551	9.466385	-5.004016	19.074091	27.932502	-28.543475	-51.165687	58.702443	5.757743	53.654756	43.270690	55.045520	4.364898	64.459527	49.709756	56.618613	-6.214040	84.380583	64.976029	70.503936	-3.748279	88.329133	44.659763
0.205000	0.705439	-1.708008	98.521615	0.059914	-0.139006	0.060750	70.592192	9.539403	-5.085329	19.209991	27.236504	-28.607816	-51.042258	58.651611	5.755517	53.674068	43.259492	55.037856	4.363537	64.421132	49.675541	56.590335	-6.216059	84.380979	64.887856	70.444236	-3.754586	88.316746	44.571003
0.215000	0.705439	-1.708008	98.521615	0.059753	-0.139372	0.060604	70.384253	9.587184	-5.185878	19.342882	26.486451	-28.678418	-50.960163	58.561456	5.744686	53.717807	43.266232	54.982530	4.363322	64.429971	49.670565	56.511528	-6.215262	84.421742	64.841062	70.339226	-3.761917	88.340944	44.511237
0.225000	0.705439	-1.708008	98.521615	0.059598	-0.139655	0.060505	70.202775	9.617449	-5.288951	19.481420	25.670775	-28.756661	-50.907981	58.452419	5.727620	53.773365	43.274252	54.904986	4.364448	64.458776	49.683413	56.410318	-6.213045	84.482951	64.822949	70.219572	-3.769444	88.385263	44.465731
0.235000	0.705439	-1.708008	98.521615	0.059462	-0.139856	0.060432	70.047109	9.642689	-5.374478	19.620639	24.805266	-28.830821	-50.854995	58.333196	5.706780	53.834634	43.270138	54.820692	4.366733	64.488174	49.699062	56.303668	-6.210381	84.549532	64.808371	70.105141	-3.776140	88.428547	44.420513
0.245000	0.705439	-1.708008	98.521615	0.059349	-0.140006	0.060358	69.913725	9.676755	-5.428663	19.750042	23.926795	-28.886436	-50.772548	58.200847	5.684153	53.902237	43.249600	54.733162	4.369768	64.512319	49.704306	56.195962	-6.207703	84.617099	64.772712	70.002791	-3.781219	88.455129	44.366946
0.255000	0.705439	-1.708008	98.521615	0.059250	-0.140136	0.060264	69.801352	9.730585	-5.447796	19.861546	23.079952	-28.914967	-50.649290	58.048133	5.661214	53.978665	43.218239	54.638734	4.373141	64.534984	49.692299	56.084427	-6.205121	84.688646	64.703323	69.909666	-3.784463	88.458730	44.302288
0.265000	0.705439	-1.708008	98.521615	0.059158	-0.140266	0.060141	69.711812	9.808695	-5.437073	19.953564	22.303091	-28.917324	-50.494536	57.872416	5.639068	54.063234	43.187166	54.533663	4.376558	64.561441	49.664527	55.966394	-6.202672	84.766747	64.604226	69.818876	-3.786293	88.440978	44.227362
0.275000	0.705439	-1.708008	98.521615	0.059069	-0.140397	0.059994	69.647439	9.907948	-5.406864	20.030588	21.618507	-28.902029	-50.330821	57.680254	5.618551	54.150562	43.166478	54.418949	4.379850	64.592413	49.629307	55.843783	-6.200380	84.847849	64.492479	69.724624	-3.787594	88.407481	44.143706
0.285000	0.705439	-1.708008	98.521615	0.058981	-0.140520	0.059834	69.607770	10.019022	-5.368652	20.099812	21.028562	-28.880117	-50.181392	57.485284	5.600216	54.233119	43.160451	54.300750	4.382967	64.623461	49.597376	55.723042	-6.198188	84.922686	64.388735	69.625140	-3.789377	88.364287	44.052198
0.295000	0.705439	-1.708008	98.521615	0.058897	-0.140628	0.059677	69.588008	10.129856	-5.331855	20.167055	20.517943	-28.859738	-50.059414	57.301483	5.584266	54.305488	43.166694	54.187111	4.386002	64.648824	49.576742	55.611651	-6.195897	84.981865	64.307164	69.522854	-3.792425	88.316029	43.953596
0.305000	0.705439	-1.708008	98.521615	0.058820	-0.140717	0.059535	69.580340	10.229554	-5.302019	20.233965	20.061360	-28.842974	-49.963564	57.136364	5.570479	54.367138	43.178875	54.083614	4.389182	64.665869	49.569324	55.513900	-6.193245	85.021981	64.249604	69.422171	-3.797027	88.265524	43.849861
0.315000	0.705439	-1.708008	98.521615	0.058750	-0.140788	0.059417	69.577258	10.311243	-5.280488	20.297612	19.634320	-28.825952	-49.880980	56.987925	5.558202	54.422064	43.190828	53.990756	4.392777	64.676678	49.570862	55.428566	-6.190070	85.047652	64.206154	69.326316	-3.802906	88.213870	43.744645
0.325000	0.705439	-1.708008	98.521615	0.058686	-0.140845	0.059323	69.574687	10.372983	-5.265372	20.352396	19.222586	-28.801777	-49.795096	56.846645	5.546507	54.475883	43.199761	53.904549	4.396970	64.685873	49.573890	55.349895	-6.186443	85.068095	64.161200	69.235364	-3.809349	88.160395	43.642164
0.335000	0.705439	-1.708008	98.521615	0.058627	-0.140891	0.059253	69.572883	10.416774	-5.253322	20.393180	18.825960	-28.764607	-49.694145	56.701143	5.534565	54.532328	43.207180	53.819753	4.401760	64.696562	49.572091	55.271344	-6.182651	85.090814	64.101606	69.146806	-3.815462	88.102632	43.545212
0.345000	0.705439	-1.708008	98.521615	0.058569	-0.140925	0.059202	69.574659	10.446548	-5.241307	20.418149	18.455030	-28.712894	-49.576372	56.544488	5.522065	54.591208	43.217433	53.733542	4.406979	64.707567	49.563658	55.189803	-6.179063	85.116869	64.023029	69.058216	-3.820451	88.036989	43.454002
0.355000	0.705439	-1.708008	98.521615	0.058512	-0.140949	0.059164	69.582355	10.466328	-5.227729	20.430084	18.123462	-28.650426	-49.449959	56.377903	5.509408	54.649026	43.234774	53.647223	4.412387	64.714218	49.551732	55.107692	-6.175942	85.141028	63.931205	68.970091	-3.823859	87.960465	43.366875
0.365000	0.705439	-1.708008	98.521615	0.058455	-0.140962	0.059136	69.595678	10.479300	-5.212640	20.435516	17.840297	-28.584957	-49.328321	56.209963	5.497539	54.701984	43.260448	53.565107	4.417782	64.712264	49.541731	55.031584	-6.173354	85.156583	63.837588	68.886793	-3.825711	87.872791	43.282146
0.375000	0.705439	-1.708008	98.521615	0.058402	-0.140971	0.059113	69.611695	10.487829	-5.197277	20.442176	17.605758	-28.525279	-49.223590	56.051939	5.487461	54.749321	43.291345	53.491636	4.423051	64.701885	49.537429	54.968246	-6.171202	85.161096	63.752101	68.814771	-3.826543	87.777606	43.199354
0.385000	0.705439	-1.708008	98.521615	0.058354	-0.140980	0.059092	69.626691	10.493907	-5.183318	20.455965	17.411428	-28.478102	-49.141692	55.912198	5.479749	54.794331	43.321084	53.428862	4.428148	64.688437	49.538683	54.920632	-6.169360	85.158723	63.677823	68.758987	-3.827254	87.681612	43.118791
0.395000	0.705439	-1.708008	98.521615	0.058313	-0.140993	0.059072	69.638487	10.499508	-5.172065	20.478735	17.243556	-28.445882	-49.080991	55.793000	5.474320	54.841981	43.343020	53.375750	4.433026	64.679179	49.542322	54.886229	-6.167784	85.157483	63.610960	68.719739	-3.828753	87.591802	43.040042
